<?xml version="1.0" encoding="utf-8"?>
<!-- Generator: Adobe Illustrator 25.4.1, SVG Export Plug-In . SVG Version: 6.00 Build 0)  -->
<svg version="1.1" id="Capa_3" xmlns="http://www.w3.org/2000/svg" xmlns:xlink="http://www.w3.org/1999/xlink" x="0px" y="0px"
	 viewBox="0 0 574 559.1" style="enable-background:new 0 0 574 559.1;" xml:space="preserve">
<style type="text/css">
	.st0{fill:#202121;}
	.st1{fill:#02B124;}
</style>
<path class="st0" d="M265.4,6.6c168-13.5,318.8,139.2,301,303C532.1,555.9,196.4,643.4,53.2,430.5C-68.5,257,59.5,20.3,265.4,6.6z
	 M334.1,372.7C334.1,372.7,334.1,372.8,334.1,372.7c13.6,0.1,27.1-0.2,40.7,0.2c6.9,0.2,9.4-2.3,9.3-9.1
	c-4.9-71.5,18.9-70.3-39.5-68.8c-19.3,0-20.4-1.8-11.6-18.1c11.8-21.7,24-43.2,34.8-65.4c5.8-11.8,15.8-22.1,16.5-36
	c0.7-14.5-0.1-29.1,0.3-43.6c3.4-16.8-35-5.6-46.1-9.4c-23.2-2.5-28.6,32-39.1,47.1c-5.5,11.6-13.7,16.7-27.1,16.3
	c-24.2-0.8-48.5,0.1-72.8-0.3c-7.8-0.1-11,2-10.7,10.2c0.5,19.8,0.4,39.6,0.1,59.4c-2.8,14.8,33.4,5.9,43.2,8.3
	c14.2,0.1,15.8,2.9,9.5,14.9C224.8,313.1,202,346,188.9,382c0.1,14.9,0.3,29.9-0.1,44.8c-2.9,15.8,36.3,5.3,46.8,8.7
	c9.1,0.6,14.7-2.8,18.7-10.5C283.8,372.5,269.5,370.7,334.1,372.7z"/>
<path class="st1" d="M334.1,372.7c-65.2-2-50.2-0.1-79.8,52.3c-4,7.6-9.6,11-18.7,10.5c-10.7-3.3-49.7,7-46.8-8.7
	c0.4-14.9,0.2-29.9,0.1-44.8c13.1-35.9,35.9-68.9,52.6-103.7c6.4-12,4.7-14.7-9.5-14.9c-10-2.4-46,6.5-43.2-8.3
	c0.3-19.8,0.4-39.6-0.1-59.4c-0.2-8.2,2.9-10.3,10.7-10.2c24.3,0.4,48.5-0.5,72.8,0.3c13.4,0.5,21.6-4.7,27.1-16.3
	c10.5-15.2,16-49.6,39.1-47.1c11.3,3.7,49.5-7.3,46.1,9.3c-0.3,14.5,0.4,29.1-0.3,43.6c-0.6,13.9-10.7,24.1-16.5,36
	c-10.8,22.2-23,43.6-34.8,65.4c-8.8,16.3-7.7,18.1,11.6,18.1c58.5-1.5,34.6-2.6,39.5,68.8c0.1,6.8-2.3,9.3-9.3,9.1
	C361.3,372.5,347.7,372.8,334.1,372.7C334.1,372.8,334.1,372.7,334.1,372.7z"/>
</svg>
