<?xml version="1.0" encoding="utf-8"?>
<!-- Generator: Adobe Illustrator 25.4.1, SVG Export Plug-In . SVG Version: 6.00 Build 0)  -->
<svg version="1.1" id="Capa_2" xmlns="http://www.w3.org/2000/svg" xmlns:xlink="http://www.w3.org/1999/xlink" x="0px" y="0px"
	 viewBox="0 0 574 580.9" style="enable-background:new 0 0 574 580.9;" xml:space="preserve">
<style type="text/css">
	.st0{fill:#E4CFBC;}
</style>
<path class="st0" d="M566.1,292.2c5.3-125,7.4-266.4-150.5-284.8C8.8-4.1-3.6,5.4,7.4,413.7C13.6,623.1,259.8,571.9,406,576.8
	C571.3,564.7,572.1,422.3,566.1,292.2z M518.4,218.9c2,55.2,3.4,240.1-35,278.7c-15,15-38,23-69,27.3c-53.6,7.5-178.6,3.4-228,5
	c-26.4-4.4-67.4-13.1-93-36c-9.8-11.4-19.8-27.5-25-41.7c-11.8-42.3-14.6-113.8-14-157.3C57.1,208.1,28.3,96.3,137.1,65
	c67.3-8.6,128.3-6.3,195.4-6.8c0.1-1.7,112.2-6.5,146,23.7C525.5,123.9,518.4,218.9,518.4,218.9z"/>
<path class="st0" d="M425.2,289.5c3.3-96.3-93-168.8-184.2-136.7c-119.1,41.7-126.4,211.6-11.9,264
	C320.6,459,425.2,389.5,425.2,289.5z M366.5,313.9c-12.4,51.9-74.3,73.9-118.8,50.7c-26.6-15.9-47.3-43.2-44.2-77.5
	c1.5-24,3.2-39.8,17.8-56.2c18-20.6,43.3-32.5,71.9-29.8C343,205.4,383.9,257.8,366.5,313.9z"/>
<path class="st0" d="M467.2,137.8c0.6,4.9-0.8,10-3,14.7c-3.1,6.6-7.9,11.8-14.4,15.4c-6.7,3.7-13.7,4.5-21.2,3.7
	c-9.2-1-16.4-5.5-22.1-12.5c-2.7-3.3-4.4-7.1-5.8-11.3c-2-6.1-1.7-12.1-0.9-18.1c0.6-4.4,2.8-8.6,5.3-12.5
	c3.3-4.9,7.3-8.9,12.6-11.5c3.8-1.9,7.8-3.3,12.1-3.4c3.6-0.1,7.2-0.4,10.7,0.5c2.1,0.5,4.2,1.3,6.3,2.2c3.9,1.6,7.4,3.8,10.3,6.9
	c3.1,3.3,5.6,7.1,7.5,11.4C466.5,127.8,467.4,132.5,467.2,137.8z"/>
</svg>
