<?xml version="1.0" encoding="utf-8"?>
<!-- Generator: Adobe Illustrator 25.4.1, SVG Export Plug-In . SVG Version: 6.00 Build 0)  -->
<svg version="1.1" id="Capa_1" xmlns="http://www.w3.org/2000/svg" xmlns:xlink="http://www.w3.org/1999/xlink" x="0px" y="0px"
	 viewBox="0 0 615.31 595.28" style="enable-background:new 0 0 615.31 595.28;" xml:space="preserve">
<style type="text/css">
	.st0{fill:#0878B6;}
	.st1{fill:#FEFFFF;}
	.st2{fill:#FFFFFF;}
	.st3{fill:#FEFEFF;}
</style>
<g>
	<path class="st0" d="M6.23,321c0-15.57,0-31.14,0-46.71c1.36-0.58,1.05-1.85,1.18-2.92c3.15-26.74,7.9-52.95,19.12-77.85
		c10.13-22.46,20.04-44.8,35.72-64.21c11.43-14.14,22.49-28.39,36.04-40.77c21.42-19.57,44.72-36.01,70.58-49.14
		c33.19-16.85,68.23-26.97,105.15-30.96c63.49-6.86,123.46,4.9,179.83,34.6c26.46,13.95,49.82,32.32,71.31,53.07
		c13.27,12.81,24.02,27.79,34.88,42.53c15.72,21.32,26.69,45.63,34.65,70.53c19.89,62.25,20.33,124.72-3.58,186.5
		c-9.53,24.62-20.28,48.42-36.79,69.38c-11.02,13.99-21.78,28-34.86,40.31c-21.83,20.58-45.83,37.73-72.52,51.36
		c-30,15.33-61.69,24.99-94.93,30.05c-7.4,1.13-15.03,0.6-22.22,3.11c-15.57,0-31.14,0-46.71,0c-0.74-1.6-2.26-1.1-3.48-1.21
		c-41.1-3.61-79.91-15.23-116.39-34.26c-26.49-13.82-50.04-31.95-71.64-52.53c-12.92-12.31-23.63-26.61-34.26-40.81
		c-15.28-20.41-25.25-43.89-34.86-67.31c-6.84-16.66-10.29-34.44-13.06-52.28C8.34,334.66,8.66,327.61,6.23,321z M325.27,274.19
		c0-6.99-0.2-13.99,0.08-20.96c0.15-3.83-0.77-5.24-4.93-5.2c-19.55,0.22-39.1,0.22-58.65,0c-4.2-0.05-4.88,1.42-4.87,5.22
		c0.09,62.44,0.09,124.89-0.08,187.33c-0.01,4.56,0.86,6.18,5.8,6.1c18.98-0.3,37.96-0.3,56.94,0c4.92,0.08,5.85-1.52,5.83-6.09
		c-0.18-35.87-0.25-71.75,0-107.62c0.11-16.02,7.36-27.94,22.47-34.37c15.72-6.7,41.6-3.66,47.21,22.48
		c1.53,7.12,2.09,14.23,2.08,21.46c-0.02,32.84,0.05,65.67-0.08,98.51c-0.02,3.96,0.62,5.68,5.18,5.62
		c19.55-0.26,39.1-0.17,58.65-0.05c3.24,0.02,4.68-0.58,4.67-4.32c-0.17-39.29,0.36-78.59-0.45-117.86
		c-0.38-18.39-5.03-35.68-16.07-51.61c-20.03-28.88-60.39-34.06-86.4-25.83C347.38,251.83,334.95,260.81,325.27,274.19z
		 M219.22,347.78c0-31.32-0.07-62.64,0.08-93.97c0.02-4.15-0.61-5.94-5.44-5.86c-19.36,0.31-38.72,0.25-58.08,0.03
		c-4.1-0.05-4.98,1.25-4.97,5.13c0.12,62.83,0.12,125.67-0.01,188.5c-0.01,4.05,1.21,5.07,5.13,5.03
		c19.36-0.19,38.73-0.22,58.08,0.02c4.39,0.05,5.33-1.35,5.3-5.49C219.14,410.04,219.22,378.91,219.22,347.78z M184.57,220.88
		c8.67-0.04,17.12-1.49,24.34-6.42c11.36-7.76,16.01-18.9,14.03-32.5c-1.97-13.53-9.2-22.89-22.57-27.08
		c-14.64-4.59-28.65-3.23-41.08,5.78c-11.29,8.19-15.15,23.72-10.49,37.44C153.63,212.35,166.92,220.8,184.57,220.88z"/>
	<path class="st1" d="M325.27,274.19c9.69-13.39,22.11-22.37,37.36-27.2c26.01-8.24,66.37-3.05,86.4,25.83
		c11.05,15.93,15.7,33.22,16.07,51.61c0.81,39.27,0.27,78.57,0.45,117.86c0.02,3.74-1.42,4.34-4.67,4.32
		c-19.55-0.11-39.1-0.2-58.65,0.05c-4.57,0.06-5.2-1.66-5.18-5.62c0.14-32.84,0.07-65.67,0.08-98.51c0-7.22-0.55-14.34-2.08-21.46
		c-5.61-26.14-31.49-29.18-47.21-22.48c-15.11,6.44-22.36,18.35-22.47,34.37c-0.25,35.87-0.18,71.75,0,107.62
		c0.02,4.57-0.91,6.16-5.83,6.09c-18.98-0.3-37.96-0.3-56.94,0c-4.94,0.08-5.81-1.55-5.8-6.1c0.17-62.44,0.18-124.89,0.08-187.33
		c-0.01-3.79,0.68-5.26,4.87-5.22c19.55,0.22,39.1,0.22,58.65,0c4.16-0.05,5.09,1.37,4.93,5.2
		C325.07,260.21,325.27,267.21,325.27,274.19z"/>
	<path class="st2" d="M219.22,347.78c0,31.13-0.08,62.26,0.09,93.4c0.02,4.14-0.92,5.54-5.3,5.49c-19.36-0.24-38.72-0.2-58.08-0.02
		c-3.91,0.04-5.13-0.98-5.13-5.03c0.12-62.83,0.12-125.67,0.01-188.5c-0.01-3.88,0.87-5.18,4.97-5.13
		c19.36,0.22,38.73,0.28,58.08-0.03c4.84-0.08,5.46,1.71,5.44,5.86C219.15,285.13,219.22,316.46,219.22,347.78z"/>
	<path class="st3" d="M184.57,220.88c-17.64-0.08-30.94-8.53-35.78-22.78c-4.66-13.72-0.8-29.25,10.49-37.44
		c12.44-9.02,26.44-10.37,41.08-5.78c13.38,4.19,20.61,13.56,22.57,27.08c1.98,13.6-2.67,24.74-14.03,32.5
		C201.69,219.39,193.24,220.84,184.57,220.88z"/>
</g>
</svg>
