<?xml version="1.0" encoding="utf-8"?>
<!-- Generator: Adobe Illustrator 25.4.1, SVG Export Plug-In . SVG Version: 6.00 Build 0)  -->
<svg version="1.1" id="Capa_2" xmlns="http://www.w3.org/2000/svg" xmlns:xlink="http://www.w3.org/1999/xlink" x="0px" y="0px"
	 viewBox="0 0 574 600.8" style="enable-background:new 0 0 574 600.8;" xml:space="preserve">
<style type="text/css">
	.st0{fill:#E7D2BF;}
	.st1{fill:#F0E3D8;}
	.st2{fill:#EFE1D5;}
	.st3{fill:#F3E9E0;}
</style>
<path class="st0" d="M31.9,393.5C-26.4,243.9,68.6,22.9,264.2,4.6c90.5-14,221.2,43.9,272,156.7c84.9,159.5-14.9,398.9-217.3,420.9
	c-49.7-1.2-36.3,8.7-121.9-16.3c-42.2-24.5-48.4-16.8-92.4-1.4C90,565.4-10.3,613.6,8.9,587c14.3-45.5,27.5-85.5,41.7-130.9
	C60.4,435.9,34.5,409.1,31.9,393.5z M310.7,50.2C185.9,32.8,63.4,150.4,59.2,275.1c-0.3,34.9-1.2,49.8,10.4,92.4
	c17.7,52.2,45.1,65.2,16.2,122c-1.5,10.9-13.9,30.4-9.5,37c31.3-11.3,54.5-18.4,84.8-28.9c49.8,27.8,94.9,45.1,150.2,38.4
	C588.1,506.7,593.6,81.7,310.7,50.2z"/>
<path class="st1" d="M568.1,301c0.3-1.4-0.8-3.9,0.8-4.5C568.6,297.9,569.7,300.3,568.1,301z"/>
<path class="st1" d="M294.1,583.5c-0.6-0.2-2.2,0.5-2-0.4C292.7,582.5,294.2,582.5,294.1,583.5z"/>
<path class="st0" d="M39.6,494.8c0.2,0.3,0.2,0.5,0,0.7C39.4,495.2,39.4,495,39.6,494.8z"/>
<path class="st2" d="M312.9,51.1c-1.3,0-2.6,0.2-3.9-0.4C310.1,50.5,313.1,49.6,312.9,51.1z"/>
<path class="st0" d="M216,162c16.5,17.2,30.4,53.7,30.5,77.8c-3.4,13.6-26.2,23.1-19,37.7c17.9,29.7,79.1,109,112.9,75.3
	c19.5-46.1,56.7-9.4,87.5,5.2c15,43.1-36.8,77.8-76.3,70.6c-83.8-20.6-164.1-91.1-192.1-177.8C142.3,194.8,193.4,147.5,216,162z"/>
<path class="st3" d="M214.5,162.2c0.4-1.4,1.7-0.5,2.5-0.8C220.1,162.2,215.7,162.3,214.5,162.2z"/>
<path class="st0" d="M250.4,53.6c0.2,0.1,1.1,0,0.8,0.3C250.8,54.1,250.6,53.9,250.4,53.6z"/>
</svg>
